{
  "accessors": [
    {
      "bufferView": 2,
      "componentType": 5126,
      "count": 489,
      "max": [
        512.404296875,
        503.82769775390625,
        231.8043975830078
      ],
      "min": [
        373.1490173339844,
        355.4150085449219,
        227.2469024658203
      ],
      "type": "VEC3"
    },
    {
      "bufferView": 2,
      "byteOffset": 5868,
      "componentType": 5126,
      "count": 489,
      "max": [
        0.9999327659606934,
        0.9843438863754272,
        1.0
      ],
      "min": [
        -0.9994879364967346,
        -0.977810263633728,
        -0.9998427033424377
      ],
      "type": "VEC3"
    },
    {
      "bufferView": 3,
      "componentType": 5126,
      "count": 489,
      "max": [
        0.9922319650650024,
        0.9999351501464844,
        0.988630473613739,
        1.0
      ],
      "min": [
        -0.9977520108222961,
        -1.0,
        -0.9953464269638062,
        -1.0
      ],
      "type": "VEC4"
    },
    {
      "bufferView": 1,
      "componentType": 5126,
      "count": 489,
      "max": [
        0.9921000003814697,
        0.9980000257492065
      ],
      "min": [
        0.0020000000949949026,
        0.0020000000949949026
      ],
      "type": "VEC2"
    },
    {
      "bufferView": 0,
      "componentType": 5125,
      "count": 2328,
      "type": "SCALAR"
    },
    {
      "bufferView": 2,
      "byteOffset": 11736,
      "componentType": 5126,
      "count": 4,
      "max": [
        1164.579833984375,
        1272.7548828125,
        4.3468017578125
      ],
      "min": [
        0.0,
        0.0,
        4.3468017578125
      ],
      "type": "VEC3"
    },
    {
      "bufferView": 2,
      "byteOffset": 11784,
      "componentType": 5126,
      "count": 4,
      "max": [
        0.0,
        0.0,
        1.0
      ],
      "min": [
        0.0,
        0.0,
        1.0
      ],
      "type": "VEC3"
    },
    {
      "bufferView": 1,
      "byteOffset": 3912,
      "componentType": 5126,
      "count": 4,
      "max": [
        1.0,
        1.0
      ],
      "min": [
        0.0,
        0.0
      ],
      "type": "VEC2"
    },
    {
      "bufferView": 0,
      "byteOffset": 9312,
      "componentType": 5125,
      "count": 6,
      "type": "SCALAR"
    },
    {
      "bufferView": 2,
      "byteOffset": 11832,
      "componentType": 5126,
      "count": 294,
      "max": [
        637.39892578125,
        366.14801025390625,
        309.4757995605469
      ],
      "min": [
        527.180908203125,
        286.41900634765625,
        228.0135040283203
      ],
      "type": "VEC3"
    },
    {
      "bufferView": 2,
      "byteOffset": 15360,
      "componentType": 5126,
      "count": 294,
      "max": [
        1.0,
        0.9235256314277649,
        0.8315061330795288
      ],
      "min": [
        -1.0,
        -0.8235737681388855,
        -0.9275122880935669
      ],
      "type": "VEC3"
    },
    {
      "bufferView": 3,
      "byteOffset": 7824,
      "componentType": 5126,
      "count": 294,
      "max": [
        0.998668909072876,
        1.0,
        0.9767479300498962,
        1.0
      ],
      "min": [
        -0.9945460557937622,
        -1.0,
        -0.9979894161224365,
        -1.0
      ],
      "type": "VEC4"
    },
    {
      "bufferView": 1,
      "byteOffset": 3944,
      "componentType": 5126,
      "count": 294,
      "max": [
        0.9980000257492065,
        0.9961000084877014
      ],
      "min": [
        0.0020000000949949026,
        0.0020000000949949026
      ],
      "type": "VEC2"
    },
    {
      "bufferView": 0,
      "byteOffset": 9336,
      "componentType": 5125,
      "count": 930,
      "type": "SCALAR"
    },
    {
      "bufferView": 2,
      "byteOffset": 18888,
      "componentType": 5126,
      "count": 12,
      "max": [
        634.93212890625,
        364.20379638671875,
        306.83990478515625
      ],
      "min": [
        529.647705078125,
        364.20379638671875,
        234.90269470214844
      ],
      "type": "VEC3"
    },
    {
      "bufferView": 2,
      "byteOffset": 19032,
      "componentType": 5126,
      "count": 12,
      "max": [
        0.730586588382721,
        -0.6189903020858765,
        0.7300167083740234
      ],
      "min": [
        -0.730586588382721,
        -0.6736154556274414,
        -0.7300167083740234
      ],
      "type": "VEC3"
    },
    {
      "bufferView": 3,
      "byteOffset": 12528,
      "componentType": 5126,
      "count": 12,
      "max": [
        -0.6828200817108154,
        0.7188893556594849,
        0.36944887042045593,
        1.0
      ],
      "min": [
        -0.9933187961578369,
        -0.7188892960548401,
        -0.36944887042045593,
        1.0
      ],
      "type": "VEC4"
    },
    {
      "bufferView": 1,
      "byteOffset": 6296,
      "componentType": 5126,
      "count": 12,
      "max": [
        0.37779998779296875,
        0.9912999868392944
      ],
      "min": [
        0.006000000052154064,
        0.7329000234603882
      ],
      "type": "VEC2"
    },
    {
      "bufferView": 0,
      "byteOffset": 13056,
      "componentType": 5125,
      "count": 30,
      "type": "SCALAR"
    },
    {
      "bufferView": 2,
      "byteOffset": 19176,
      "componentType": 5126,
      "count": 521,
      "max": [
        695.3961181640625,
        359.2662048339844,
        236.19940185546875
      ],
      "min": [
        512.404296875,
        252.38780212402344,
        227.66600036621094
      ],
      "type": "VEC3"
    },
    {
      "bufferView": 2,
      "byteOffset": 25428,
      "componentType": 5126,
      "count": 521,
      "max": [
        0.9980906844139099,
        0.9992401003837585,
        0.9978992938995361
      ],
      "min": [
        -1.0,
        -0.9498468637466431,
        -1.0
      ],
      "type": "VEC3"
    },
    {
      "bufferView": 3,
      "byteOffset": 12720,
      "componentType": 5126,
      "count": 521,
      "max": [
        1.0,
        0.9999908208847046,
        0.9959014654159546,
        1.0
      ],
      "min": [
        -1.0,
        -1.0,
        -0.995028555393219,
        -1.0
      ],
      "type": "VEC4"
    },
    {
      "bufferView": 1,
      "byteOffset": 6392,
      "componentType": 5126,
      "count": 521,
      "max": [
        1.0,
        0.9872999787330627
      ],
      "min": [
        0.01119999960064888,
        0.0
      ],
      "type": "VEC2"
    },
    {
      "bufferView": 0,
      "byteOffset": 13176,
      "componentType": 5125,
      "count": 2490,
      "type": "SCALAR"
    },
    {
      "bufferView": 2,
      "byteOffset": 31680,
      "componentType": 5126,
      "count": 152,
      "max": [
        814.6207275390625,
        512.822021484375,
        227.88150024414063
      ],
      "min": [
        349.9591064453125,
        249.9803009033203,
        18.719207763671875
      ],
      "type": "VEC3"
    },
    {
      "bufferView": 2,
      "byteOffset": 33504,
      "componentType": 5126,
      "count": 152,
      "max": [
        1.0,
        1.0,
        1.0
      ],
      "min": [
        -1.0,
        -1.0,
        -1.0
      ],
      "type": "VEC3"
    },
    {
      "bufferView": 1,
      "byteOffset": 10560,
      "componentType": 5126,
      "count": 152,
      "max": [
        16.308500289916992,
        16.252599716186523
      ],
      "min": [
        -2.963099956512451,
        -2.9528000354766846
      ],
      "type": "VEC2"
    },
    {
      "bufferView": 0,
      "byteOffset": 23136,
      "componentType": 5125,
      "count": 228,
      "type": "SCALAR"
    },
    {
      "bufferView": 2,
      "byteOffset": 35328,
      "componentType": 5126,
      "count": 336,
      "max": [
        659.4385986328125,
        328.76220703125,
        330.2869873046875
      ],
      "min": [
        505.1412353515625,
        137.23770141601563,
        150.37550354003906
      ],
      "type": "VEC3"
    },
    {
      "bufferView": 2,
      "byteOffset": 39360,
      "componentType": 5126,
      "count": 336,
      "max": [
        1.0,
        0.9998185038566589,
        0.918391227722168
      ],
      "min": [
        -1.0,
        -1.0,
        -0.918391227722168
      ],
      "type": "VEC3"
    },
    {
      "bufferView": 1,
      "byteOffset": 11776,
      "componentType": 5126,
      "count": 336,
      "max": [
        1.0,
        1.0
      ],
      "min": [
        0.0,
        0.0
      ],
      "type": "VEC2"
    },
    {
      "bufferView": 0,
      "byteOffset": 24048,
      "componentType": 5125,
      "count": 1140,
      "type": "SCALAR"
    },
    {
      "bufferView": 2,
      "byteOffset": 43392,
      "componentType": 5126,
      "count": 244,
      "max": [
        649.77880859375,
        340.1531066894531,
        231.36929321289063
      ],
      "min": [
        514.801025390625,
        148.1096954345703,
        7.0576019287109375
      ],
      "type": "VEC3"
    },
    {
      "bufferView": 2,
      "byteOffset": 46320,
      "componentType": 5126,
      "count": 244,
      "max": [
        1.0,
        1.0,
        0.9992266893386841
      ],
      "min": [
        -1.0,
        -1.0,
        -0.9992266893386841
      ],
      "type": "VEC3"
    },
    {
      "bufferView": 1,
      "byteOffset": 14464,
      "componentType": 5126,
      "count": 244,
      "max": [
        1.0,
        1.0
      ],
      "min": [
        0.0,
        0.0
      ],
      "type": "VEC2"
    },
    {
      "bufferView": 0,
      "byteOffset": 28608,
      "componentType": 5125,
      "count": 552,
      "type": "SCALAR"
    },
    {
      "bufferView": 2,
      "byteOffset": 49248,
      "componentType": 5126,
      "count": 1182,
      "max": [
        665.9932250976563,
        296.6871032714844,
        232.33200073242188
      ],
      "min": [
        408.7843017578125,
        253.56759643554688,
        227.44369506835938
      ],
      "type": "VEC3"
    },
    {
      "bufferView": 2,
      "byteOffset": 63432,
      "componentType": 5126,
      "count": 1182,
      "max": [
        0.9970846772193909,
        0.9999909400939941,
        0.9998643398284912
      ],
      "min": [
        -0.994208037853241,
        -0.9999924898147583,
        -0.9998772144317627
      ],
      "type": "VEC3"
    },
    {
      "bufferView": 1,
      "byteOffset": 16416,
      "componentType": 5126,
      "count": 1182,
      "max": [
        0.9980000257492065,
        1.0
      ],
      "min": [
        0.0,
        0.012299999594688416
      ],
      "type": "VEC2"
    },
    {
      "bufferView": 0,
      "byteOffset": 30816,
      "componentType": 5125,
      "count": 5760,
      "type": "SCALAR"
    },
    {
      "bufferView": 2,
      "byteOffset": 77616,
      "componentType": 5126,
      "count": 164,
      "max": [
        1104.737060546875,
        1057.2060546875,
        21.423095703125
      ],
      "min": [
        63.37530517578125,
        14.07940673828125,
        0.0
      ],
      "type": "VEC3"
    },
    {
      "bufferView": 2,
      "byteOffset": 79584,
      "componentType": 5126,
      "count": 164,
      "max": [
        0.9167804718017578,
        0.9152218103408813,
        1.0
      ],
      "min": [
        -0.9105846881866455,
        -0.9152218103408813,
        -1.0
      ],
      "type": "VEC3"
    },
    {
      "bufferView": 1,
      "byteOffset": 25872,
      "componentType": 5126,
      "count": 164,
      "max": [
        11.126099586486816,
        11.126099586486816
      ],
      "min": [
        -9.746700286865234,
        -9.746700286865234
      ],
      "type": "VEC2"
    },
    {
      "bufferView": 0,
      "byteOffset": 53856,
      "componentType": 5125,
      "count": 648,
      "type": "SCALAR"
    }
  ],
  "asset": {
    "extras": {
      "author": "Dev Anand (https://sketchfab.com/davisanand)",
      "license": "CC-BY-4.0 (http://creativecommons.org/licenses/by/4.0/)",
      "source": "https://sketchfab.com/3d-models/laptop-3103a5c13816485db1eed96681e1e04b",
      "title": "Laptop"
    },
    "generator": "Sketchfab-12.68.0",
    "version": "2.0"
  },
  "bufferViews": [
    {
      "buffer": 0,
      "byteLength": 56448,
      "name": "floatBufferViews",
      "target": 34963
    },
    {
      "buffer": 0,
      "byteLength": 27184,
      "byteOffset": 56448,
      "byteStride": 8,
      "name": "floatBufferViews",
      "target": 34962
    },
    {
      "buffer": 0,
      "byteLength": 81552,
      "byteOffset": 83632,
      "byteStride": 12,
      "name": "floatBufferViews",
      "target": 34962
    },
    {
      "buffer": 0,
      "byteLength": 21056,
      "byteOffset": 165184,
      "byteStride": 16,
      "name": "floatBufferViews",
      "target": 34962
    }
  ],
  "buffers": [
    {
      "byteLength": 186240,
      "uri": "scene.bin"
    }
  ],
  "images": [
    {
      "uri": "textures/04___Default_baseColor.jpeg"
    },
    {
      "uri": "textures/04___Default_normal.png"
    },
    {
      "uri": "textures/05___Default_baseColor.jpeg"
    },
    {
      "uri": "textures/05___Default_normal.png"
    },
    {
      "uri": "textures/06___Default_baseColor.jpeg"
    },
    {
      "uri": "textures/09___Default_baseColor.jpeg"
    },
    {
      "uri": "textures/10___Default_baseColor.jpeg"
    },
    {
      "uri": "textures/11___Default_baseColor.jpeg"
    },
    {
      "uri": "textures/Laptop_baseColor.jpeg"
    },
    {
      "uri": "textures/Laptop_emissive.jpeg"
    },
    {
      "uri": "textures/Laptop_normal.png"
    }
  ],
  "materials": [
    {
      "doubleSided": true,
      "name": "04___Default",
      "normalTexture": {
        "index": 1
      },
      "pbrMetallicRoughness": {
        "baseColorTexture": {
          "index": 0
        },
        "metallicFactor": 0.0,
        "roughnessFactor": 0.42
      }
    },
    {
      "doubleSided": true,
      "name": "05___Default",
      "normalTexture": {
        "index": 3
      },
      "pbrMetallicRoughness": {
        "baseColorTexture": {
          "index": 2
        },
        "metallicFactor": 0.0,
        "roughnessFactor": 0.5
      }
    },
    {
      "doubleSided": true,
      "name": "06___Default",
      "pbrMetallicRoughness": {
        "baseColorTexture": {
          "index": 4
        },
        "metallicFactor": 0.0,
        "roughnessFactor": 0.53
      }
    },
    {
      "doubleSided": true,
      "name": "07___Default",
      "pbrMetallicRoughness": {
        "baseColorFactor": [
          1.0,
          0.0,
          0.0,
          1.0
        ],
        "metallicFactor": 0.0,
        "roughnessFactor": 0.32
      }
    },
    {
      "doubleSided": true,
      "name": "08___Default",
      "pbrMetallicRoughness": {
        "baseColorFactor": [
          0.290387141204943,
          0.290387141204943,
          0.290387141204943,
          1.0
        ],
        "metallicFactor": 0.6,
        "roughnessFactor": 0.33999999999999997
      }
    },
    {
      "doubleSided": true,
      "name": "09___Default",
      "pbrMetallicRoughness": {
        "baseColorTexture": {
          "index": 5
        },
        "metallicFactor": 0.0,
        "roughnessFactor": 0.6
      }
    },
    {
      "doubleSided": true,
      "name": "10___Default",
      "pbrMetallicRoughness": {
        "baseColorTexture": {
          "index": 6
        },
        "metallicFactor": 0.0,
        "roughnessFactor": 0.0
      }
    },
    {
      "doubleSided": true,
      "name": "11___Default",
      "pbrMetallicRoughness": {
        "baseColorTexture": {
          "index": 7
        },
        "metallicFactor": 0.0,
        "roughnessFactor": 0.46
      }
    },
    {
      "doubleSided": true,
      "emissiveFactor": [
        1.0,
        1.0,
        1.0
      ],
      "emissiveTexture": {
        "index": 9
      },
      "name": "Laptop",
      "normalTexture": {
        "index": 10
      },
      "pbrMetallicRoughness": {
        "baseColorTexture": {
          "index": 8
        },
        "metallicFactor": 0.4,
        "roughnessFactor": 0.5
      }
    },
    {
      "doubleSided": true,
      "emissiveFactor": [
        1.0,
        1.0,
        1.0
      ],
      "emissiveTexture": {
        "index": 8
      },
      "name": "Laptop2",
      "normalTexture": {
        "index": 10
      },
      "pbrMetallicRoughness": {
        "baseColorTexture": {
          "index": 8
        },
        "metallicFactor": 0.0,
        "roughnessFactor": 0.35
      }
    }
  ],
  "meshes": [
    {
      "name": "Object_0",
      "primitives": [
        {
          "attributes": {
            "NORMAL": 1,
            "POSITION": 0,
            "TANGENT": 2,
            "TEXCOORD_0": 3
          },
          "indices": 4,
          "material": 1,
          "mode": 4
        }
      ]
    },
    {
      "name": "Object_1",
      "primitives": [
        {
          "attributes": {
            "NORMAL": 6,
            "POSITION": 5,
            "TEXCOORD_0": 7
          },
          "indices": 8,
          "material": 7,
          "mode": 4
        }
      ]
    },
    {
      "name": "Object_2",
      "primitives": [
        {
          "attributes": {
            "NORMAL": 10,
            "POSITION": 9,
            "TANGENT": 11,
            "TEXCOORD_0": 12
          },
          "indices": 13,
          "material": 8,
          "mode": 4
        }
      ]
    },
    {
      "name": "Object_3",
      "primitives": [
        {
          "attributes": {
            "NORMAL": 15,
            "POSITION": 14,
            "TANGENT": 16,
            "TEXCOORD_0": 17
          },
          "indices": 18,
          "material": 9,
          "mode": 4
        }
      ]
    },
    {
      "name": "Object_4",
      "primitives": [
        {
          "attributes": {
            "NORMAL": 20,
            "POSITION": 19,
            "TANGENT": 21,
            "TEXCOORD_0": 22
          },
          "indices": 23,
          "material": 0,
          "mode": 4
        }
      ]
    },
    {
      "name": "Object_5",
      "primitives": [
        {
          "attributes": {
            "NORMAL": 25,
            "POSITION": 24,
            "TEXCOORD_0": 26
          },
          "indices": 27,
          "material": 2,
          "mode": 4
        }
      ]
    },
    {
      "name": "Object_6",
      "primitives": [
        {
          "attributes": {
            "NORMAL": 29,
            "POSITION": 28,
            "TEXCOORD_0": 30
          },
          "indices": 31,
          "material": 3,
          "mode": 4
        }
      ]
    },
    {
      "name": "Object_7",
      "primitives": [
        {
          "attributes": {
            "NORMAL": 33,
            "POSITION": 32,
            "TEXCOORD_0": 34
          },
          "indices": 35,
          "material": 4,
          "mode": 4
        }
      ]
    },
    {
      "name": "Object_8",
      "primitives": [
        {
          "attributes": {
            "NORMAL": 37,
            "POSITION": 36,
            "TEXCOORD_0": 38
          },
          "indices": 39,
          "material": 5,
          "mode": 4
        }
      ]
    },
    {
      "name": "Object_9",
      "primitives": [
        {
          "attributes": {
            "NORMAL": 41,
            "POSITION": 40,
            "TEXCOORD_0": 42
          },
          "indices": 43,
          "material": 6,
          "mode": 4
        }
      ]
    }
  ],
  "nodes": [
    {
      "children": [
        1
      ],
      "matrix": [
        1.0,
        0.0,
        0.0,
        0.0,
        0.0,
        2.220446049250313e-16,
        -1.0,
        0.0,
        0.0,
        1.0,
        2.220446049250313e-16,
        0.0,
        0.0,
        0.0,
        0.0,
        1.0
      ],
      "name": "Sketchfab_model"
    },
    {
      "children": [
        2
      ],
      "matrix": [
        1.0,
        0.0,
        0.0,
        0.0,
        0.0,
        1.0,
        0.0,
        0.0,
        0.0,
        0.0,
        1.0,
        0.0,
        -582.2899169921875,
        -325.02349853515625,
        -227.88150024414063,
        1.0
      ],
      "name": "f0b9d416edd844e18e49ec2ef3f97aeb.obj.cleaner.gles"
    },
    {
      "children": [
        3,
        4,
        5,
        6,
        7,
        8,
        9,
        10,
        11,
        12
      ],
      "name": "Object_2"
    },
    {
      "mesh": 0,
      "name": "Object_3"
    },
    {
      "mesh": 1,
      "name": "Object_4"
    },
    {
      "mesh": 2,
      "name": "Object_5"
    },
    {
      "mesh": 3,
      "name": "Object_6"
    },
    {
      "mesh": 4,
      "name": "Object_7"
    },
    {
      "mesh": 5,
      "name": "Object_8"
    },
    {
      "mesh": 6,
      "name": "Object_9"
    },
    {
      "mesh": 7,
      "name": "Object_10"
    },
    {
      "mesh": 8,
      "name": "Object_11"
    },
    {
      "mesh": 9,
      "name": "Object_12"
    }
  ],
  "samplers": [
    {
      "magFilter": 9729,
      "minFilter": 9987,
      "wrapS": 10497,
      "wrapT": 10497
    }
  ],
  "scene": 0,
  "scenes": [
    {
      "name": "Sketchfab_Scene",
      "nodes": [
        0
      ]
    }
  ],
  "textures": [
    {
      "sampler": 0,
      "source": 0
    },
    {
      "sampler": 0,
      "source": 1
    },
    {
      "sampler": 0,
      "source": 2
    },
    {
      "sampler": 0,
      "source": 3
    },
    {
      "sampler": 0,
      "source": 4
    },
    {
      "sampler": 0,
      "source": 5
    },
    {
      "sampler": 0,
      "source": 6
    },
    {
      "sampler": 0,
      "source": 7
    },
    {
      "sampler": 0,
      "source": 8
    },
    {
      "sampler": 0,
      "source": 9
    },
    {
      "sampler": 0,
      "source": 10
    }
  ]
}
